# xmcd
#
# Track frame offsets: 
#        150
#        21357
#        42192
#        61570
#        81042
#        101475
#        113015
#        127627
#        148145
#        167217
#        183330
#        203437
#        227722
#        244057
#
# Disc length: 3484 seconds
#
# Revision: 0
# Processed by: cddbd v1.5.2PL0 Copyright (c) Steve Scherf et al.
# Submitted via: ExactAudioCopy v0.95a5
#
DISCID=aa0d9a0e
DTITLE=Various Artist - Gator's Swing Party
DYEAR=1999
DGENRE=Blues
TTITLE0=Professor's Boogie - Phil Guy
TTITLE1=Waiting For The Blues - Deitra Farr
TTITLE2=You Know Who Your Friends Are - Joe Coronado
TTITLE3=They Call Me Sweet Betty - Sweet Betty
TTITLE4=Baby Cakes Bop - Kenny Parker
TTITLE5=Schefel - Bob Kirkpatrick
TTITLE6=I Got A Stick - Andrew 'Jr Boy' Jones
TTITLE7=Falling Rain - Jackie Payne
TTITLE8=Leave Me Alone - Jimmy Morello
TTITLE9=Screecher - Charlie Sayles
TTITLE10=Play Me A Song - Lonnie Shield with Shemekia Copeland
TTITLE11=Watsonized - Kirk Fletcher
TTITLE12=Out Of Bounds - Alana Williams
TTITLE13=Hip Guy - Charlie Sayles (bonus track)
EXTD=
EXTT0=
EXTT1=
EXTT2=
EXTT3=
EXTT4=
EXTT5=
EXTT6=
EXTT7=
EXTT8=
EXTT9=
EXTT10=
EXTT11=
EXTT12=
EXTT13=
PLAYORDER=
